<svg width="162" height="30" viewBox="0 0 162 30" fill="none" xmlns="http://www.w3.org/2000/svg">
<path d="M23.8794 29L23.8435 13.9037L16.4391 26.3402H13.8152L6.44676 14.2272V29H0.983324V3.83944H5.79977L15.217 19.4749L24.4905 3.83944H29.271L29.3429 29H23.8794ZM44.1185 29.2875C42.0817 29.2875 40.2486 28.8682 38.6191 28.0295C37.0137 27.1669 35.7556 25.9807 34.8451 24.4711C33.9345 22.9615 33.4792 21.2481 33.4792 19.3312C33.4792 17.4142 33.9345 15.7008 34.8451 14.1912C35.7556 12.6816 37.0137 11.5074 38.6191 10.6687C40.2486 9.80608 42.0817 9.37476 44.1185 9.37476C46.1553 9.37476 47.9765 9.80608 49.582 10.6687C51.1874 11.5074 52.4455 12.6816 53.356 14.1912C54.2666 15.7008 54.7219 17.4142 54.7219 19.3312C54.7219 21.2481 54.2666 22.9615 53.356 24.4711C52.4455 25.9807 51.1874 27.1669 49.582 28.0295C47.9765 28.8682 46.1553 29.2875 44.1185 29.2875ZM44.1185 24.6868C45.5563 24.6868 46.7304 24.2075 47.641 23.249C48.5755 22.2666 49.0428 20.9606 49.0428 19.3312C49.0428 17.7017 48.5755 16.4077 47.641 15.4492C46.7304 14.4668 45.5563 13.9755 44.1185 13.9755C42.6808 13.9755 41.4946 14.4668 40.5601 15.4492C39.6256 16.4077 39.1583 17.7017 39.1583 19.3312C39.1583 20.9606 39.6256 22.2666 40.5601 23.249C41.4946 24.2075 42.6808 24.6868 44.1185 24.6868ZM67.6714 29.2875C65.6346 29.2875 63.8015 28.8682 62.1721 28.0295C60.5666 27.1669 59.3086 25.9807 58.398 24.4711C57.4874 22.9615 57.0321 21.2481 57.0321 19.3312C57.0321 17.4142 57.4874 15.7008 58.398 14.1912C59.3086 12.6816 60.5666 11.5074 62.1721 10.6687C63.8015 9.80608 65.6346 9.37476 67.6714 9.37476C69.7083 9.37476 71.5294 9.80608 73.1349 10.6687C74.7404 11.5074 75.9984 12.6816 76.909 14.1912C77.8195 15.7008 78.2748 17.4142 78.2748 19.3312C78.2748 21.2481 77.8195 22.9615 76.909 24.4711C75.9984 25.9807 74.7404 27.1669 73.1349 28.0295C71.5294 28.8682 69.7083 29.2875 67.6714 29.2875ZM67.6714 24.6868C69.1092 24.6868 70.2834 24.2075 71.1939 23.249C72.1285 22.2666 72.5957 20.9606 72.5957 19.3312C72.5957 17.7017 72.1285 16.4077 71.1939 15.4492C70.2834 14.4668 69.1092 13.9755 67.6714 13.9755C66.2337 13.9755 65.0476 14.4668 64.113 15.4492C63.1785 16.4077 62.7112 17.7017 62.7112 19.3312C62.7112 20.9606 63.1785 22.2666 64.113 23.249C65.0476 24.2075 66.2337 24.6868 67.6714 24.6868ZM100.69 9.66231L92.531 29H86.7441L78.6208 9.66231H84.4077L89.7633 22.8177L95.2987 9.66231H100.69ZM102.978 9.66231H108.585V29H102.978V9.66231ZM105.782 6.96653C104.751 6.96653 103.913 6.667 103.266 6.06794C102.619 5.46888 102.295 4.72605 102.295 3.83944C102.295 2.95283 102.619 2.20999 103.266 1.61093C103.913 1.01187 104.751 0.712337 105.782 0.712337C106.812 0.712337 107.651 0.999887 108.298 1.57499C108.945 2.15008 109.268 2.86896 109.268 3.73161C109.268 4.66614 108.945 5.44492 108.298 6.06794C107.651 6.667 106.812 6.96653 105.782 6.96653ZM132.732 19.403C132.732 19.4749 132.696 19.9781 132.624 20.9127H117.995C118.258 22.1108 118.881 23.0573 119.864 23.7522C120.846 24.4471 122.068 24.7946 123.53 24.7946C124.537 24.7946 125.423 24.6508 126.19 24.3633C126.981 24.0518 127.712 23.5725 128.383 22.9255L131.366 26.1605C129.545 28.2452 126.885 29.2875 123.386 29.2875C121.206 29.2875 119.277 28.8682 117.599 28.0295C115.922 27.1669 114.628 25.9807 113.718 24.4711C112.807 22.9615 112.352 21.2481 112.352 19.3312C112.352 17.4381 112.795 15.7368 113.682 14.2272C114.592 12.6936 115.826 11.5074 117.384 10.6687C118.965 9.80608 120.727 9.37476 122.667 9.37476C124.561 9.37476 126.274 9.78212 127.807 10.5968C129.341 11.4116 130.539 12.5857 131.402 14.1193C132.288 15.629 132.732 17.3902 132.732 19.403ZM122.703 13.6161C121.433 13.6161 120.367 13.9755 119.504 14.6944C118.642 15.4133 118.115 16.3958 117.923 17.6418H127.448C127.256 16.4197 126.729 15.4492 125.866 14.7304C125.004 13.9875 123.949 13.6161 122.703 13.6161ZM142.971 29.2875C141.365 29.2875 139.796 29.0958 138.262 28.7125C136.728 28.3051 135.506 27.8019 134.596 27.2028L136.465 23.1771C137.327 23.7283 138.37 24.1835 139.592 24.543C140.814 24.8785 142.012 25.0462 143.186 25.0462C145.559 25.0462 146.745 24.4591 146.745 23.285C146.745 22.7338 146.421 22.3384 145.774 22.0988C145.127 21.8592 144.133 21.6555 142.791 21.4878C141.209 21.2482 139.903 20.9726 138.873 20.6611C137.843 20.3496 136.944 19.7984 136.177 19.0077C135.434 18.2169 135.063 17.0907 135.063 15.629C135.063 14.4069 135.41 13.3286 136.105 12.394C136.824 11.4355 137.855 10.6927 139.197 10.1655C140.562 9.63835 142.168 9.37476 144.013 9.37476C145.379 9.37476 146.733 9.53052 148.075 9.84203C149.44 10.1296 150.567 10.5369 151.453 11.0641L149.584 15.0539C147.883 14.0954 146.026 13.6161 144.013 13.6161C142.815 13.6161 141.916 13.7838 141.317 14.1193C140.718 14.4548 140.419 14.8861 140.419 15.4133C140.419 16.0124 140.742 16.4317 141.389 16.6713C142.036 16.9109 143.066 17.1386 144.48 17.3543C146.062 17.6178 147.356 17.9054 148.362 18.2169C149.369 18.5045 150.243 19.0436 150.986 19.8344C151.729 20.6251 152.1 21.7274 152.1 23.1412C152.1 24.3393 151.741 25.4056 151.022 26.3402C150.303 27.2747 149.249 28.0056 147.859 28.5327C146.493 29.0359 144.864 29.2875 142.971 29.2875Z" fill="white"/>
<path d="M157.681 29.2875C156.698 29.2875 155.871 28.9521 155.2 28.2811C154.529 27.6102 154.194 26.7715 154.194 25.7651C154.194 24.7347 154.529 23.908 155.2 23.285C155.871 22.638 156.698 22.3145 157.681 22.3145C158.663 22.3145 159.49 22.638 160.161 23.285C160.832 23.908 161.167 24.7347 161.167 25.7651C161.167 26.7715 160.832 27.6102 160.161 28.2811C159.49 28.9521 158.663 29.2875 157.681 29.2875Z" fill="#FFA012"/>
</svg>
